# MagicaVoxel @ Ephtracy

# group
o 

# material
mtllib tree.mtl
usemtl palette

# normals
vn -1 0 0
vn 1 0 0
vn 0 0 1
vn 0 0 -1
vn 0 -1 0
vn 0 1 0

# texcoords
vt 0.396484 0.5
vt 0.560547 0.5
vt 0.888672 0.5

# verts
v 0.2 2.6 -0.3
v 0.2 2.6 -0.7
v 0.2 2.8 -0.3
v 0.2 2.8 -0.7
v 0.3 2.5 -0.3
v 0.3 2.5 -0.7
v 0.3 2.6 -0.2
v 0.3 2.6 -0.3
v 0.3 2.6 -0.7
v 0.3 2.6 -0.8
v 0.3 2.8 -0.2
v 0.3 2.8 -0.3
v 0.3 2.8 -0.7
v 0.3 2.8 -0.8
v 0.3 2.9 -0.3
v 0.3 2.9 -0.7
v 0.4 2 -0.4
v 0.4 2 -0.6
v 0.4 2.1 -0.5
v 0.4 2.1 -0.6
v 0.4 2.2 -0.5
v 0.4 2.2 -0.6
v 0.4 2.5 -0.4
v 0.4 2.5 -0.6
v 0.4 2.9 -0.4
v 0.4 2.9 -0.6
v 0.4 3 -0.4
v 0.4 3 -0.6
v 0.6 2 -0.4
v 0.6 2 -0.6
v 0.6 2.2 -0.4
v 0.6 2.2 -0.5
v 0.6 2.3 -0.4
v 0.6 2.3 -0.5
v 0.6 2.3 -0.6
v 0.6 2.4 -0.5
v 0.6 2.4 -0.6
v 0.6 2.5 -0.4
v 0.6 2.5 -0.6
v 0.6 2.9 -0.4
v 0.6 2.9 -0.6
v 0.6 3 -0.4
v 0.6 3 -0.6
v 0.7 2.5 -0.3
v 0.7 2.5 -0.7
v 0.7 2.6 -0.2
v 0.7 2.6 -0.3
v 0.7 2.6 -0.7
v 0.7 2.6 -0.8
v 0.7 2.8 -0.2
v 0.7 2.8 -0.3
v 0.7 2.8 -0.7
v 0.7 2.8 -0.8
v 0.7 2.9 -0.3
v 0.7 2.9 -0.7
v 0.8 2.6 -0.3
v 0.8 2.6 -0.7
v 0.8 2.8 -0.3
v 0.8 2.8 -0.7
v 0.3 2.6 -0.2
v 0.3 2.8 -0.2
v 0.7 2.6 -0.2
v 0.7 2.8 -0.2
v 0.2 2.6 -0.3
v 0.2 2.8 -0.3
v 0.3 2.5 -0.3
v 0.3 2.6 -0.3
v 0.3 2.8 -0.3
v 0.3 2.9 -0.3
v 0.7 2.5 -0.3
v 0.7 2.6 -0.3
v 0.7 2.8 -0.3
v 0.7 2.9 -0.3
v 0.8 2.6 -0.3
v 0.8 2.8 -0.3
v 0.4 2 -0.4
v 0.4 2.5 -0.4
v 0.4 2.9 -0.4
v 0.4 3 -0.4
v 0.5 2.2 -0.4
v 0.5 2.3 -0.4
v 0.6 2 -0.4
v 0.6 2.2 -0.4
v 0.6 2.3 -0.4
v 0.6 2.5 -0.4
v 0.6 2.9 -0.4
v 0.6 3 -0.4
v 0.4 2 -0.6
v 0.4 2.1 -0.6
v 0.4 2.2 -0.6
v 0.4 2.5 -0.6
v 0.4 2.9 -0.6
v 0.4 3 -0.6
v 0.5 2.1 -0.6
v 0.5 2.2 -0.6
v 0.5 2.3 -0.6
v 0.5 2.4 -0.6
v 0.6 2 -0.6
v 0.6 2.3 -0.6
v 0.6 2.4 -0.6
v 0.6 2.5 -0.6
v 0.6 2.9 -0.6
v 0.6 3 -0.6
v 0.2 2.6 -0.7
v 0.2 2.8 -0.7
v 0.3 2.5 -0.7
v 0.3 2.6 -0.7
v 0.3 2.8 -0.7
v 0.3 2.9 -0.7
v 0.7 2.5 -0.7
v 0.7 2.6 -0.7
v 0.7 2.8 -0.7
v 0.7 2.9 -0.7
v 0.8 2.6 -0.7
v 0.8 2.8 -0.7
v 0.3 2.6 -0.8
v 0.3 2.8 -0.8
v 0.7 2.6 -0.8
v 0.7 2.8 -0.8
v 0.4 2 -0.4
v 0.6 2 -0.4
v 0.4 2 -0.6
v 0.6 2 -0.6
v 0.3 2.5 -0.3
v 0.7 2.5 -0.3
v 0.4 2.5 -0.4
v 0.6 2.5 -0.4
v 0.4 2.5 -0.6
v 0.6 2.5 -0.6
v 0.3 2.5 -0.7
v 0.7 2.5 -0.7
v 0.3 2.6 -0.2
v 0.7 2.6 -0.2
v 0.2 2.6 -0.3
v 0.3 2.6 -0.3
v 0.7 2.6 -0.3
v 0.8 2.6 -0.3
v 0.2 2.6 -0.7
v 0.3 2.6 -0.7
v 0.7 2.6 -0.7
v 0.8 2.6 -0.7
v 0.3 2.6 -0.8
v 0.7 2.6 -0.8
v 0.3 2.8 -0.2
v 0.7 2.8 -0.2
v 0.2 2.8 -0.3
v 0.3 2.8 -0.3
v 0.7 2.8 -0.3
v 0.8 2.8 -0.3
v 0.2 2.8 -0.7
v 0.3 2.8 -0.7
v 0.7 2.8 -0.7
v 0.8 2.8 -0.7
v 0.3 2.8 -0.8
v 0.7 2.8 -0.8
v 0.3 2.9 -0.3
v 0.7 2.9 -0.3
v 0.4 2.9 -0.4
v 0.6 2.9 -0.4
v 0.4 2.9 -0.6
v 0.6 2.9 -0.6
v 0.3 2.9 -0.7
v 0.7 2.9 -0.7
v 0.4 3 -0.4
v 0.6 3 -0.4
v 0.4 3 -0.6
v 0.6 3 -0.6

# faces
f 3/3/1 2/3/1 1/3/1
f 4/3/1 2/3/1 3/3/1
f 8/3/1 6/3/1 5/3/1
f 9/3/1 6/3/1 8/3/1
f 11/3/1 8/3/1 7/3/1
f 12/3/1 8/3/1 11/3/1
f 13/3/1 10/3/1 9/3/1
f 14/3/1 10/3/1 13/3/1
f 15/3/1 13/3/1 12/3/1
f 16/3/1 13/3/1 15/3/1
f 19/1/1 18/1/1 17/1/1
f 20/1/1 18/1/1 19/1/1
f 21/1/1 19/1/1 17/1/1
f 21/2/1 20/2/1 19/2/1
f 22/2/1 20/2/1 21/2/1
f 23/1/1 21/1/1 17/1/1
f 23/1/1 22/1/1 21/1/1
f 24/1/1 22/1/1 23/1/1
f 27/3/1 26/3/1 25/3/1
f 28/3/1 26/3/1 27/3/1
f 29/1/2 30/1/2 31/1/2
f 31/1/2 30/1/2 32/1/2
f 31/2/2 32/2/2 33/2/2
f 32/1/2 30/1/2 34/1/2
f 33/2/2 32/2/2 34/2/2
f 34/1/2 30/1/2 35/1/2
f 33/1/2 34/1/2 36/1/2
f 34/2/2 35/2/2 36/2/2
f 36/2/2 35/2/2 37/2/2
f 33/1/2 36/1/2 38/1/2
f 36/1/2 37/1/2 38/1/2
f 38/1/2 37/1/2 39/1/2
f 40/3/2 41/3/2 42/3/2
f 42/3/2 41/3/2 43/3/2
f 44/3/2 45/3/2 47/3/2
f 47/3/2 45/3/2 48/3/2
f 46/3/2 47/3/2 50/3/2
f 50/3/2 47/3/2 51/3/2
f 48/3/2 49/3/2 52/3/2
f 52/3/2 49/3/2 53/3/2
f 51/3/2 52/3/2 54/3/2
f 54/3/2 52/3/2 55/3/2
f 56/3/2 57/3/2 58/3/2
f 58/3/2 57/3/2 59/3/2
f 62/3/3 61/3/3 60/3/3
f 63/3/3 61/3/3 62/3/3
f 67/3/3 65/3/3 64/3/3
f 68/3/3 65/3/3 67/3/3
f 70/3/3 67/3/3 66/3/3
f 71/3/3 67/3/3 70/3/3
f 72/3/3 69/3/3 68/3/3
f 73/3/3 69/3/3 72/3/3
f 74/3/3 72/3/3 71/3/3
f 75/3/3 72/3/3 74/3/3
f 80/1/3 77/1/3 76/1/3
f 81/1/3 77/1/3 80/1/3
f 82/1/3 80/1/3 76/1/3
f 83/2/3 81/2/3 80/2/3
f 83/1/3 80/1/3 82/1/3
f 84/1/3 77/1/3 81/1/3
f 84/2/3 81/2/3 83/2/3
f 85/1/3 77/1/3 84/1/3
f 86/3/3 79/3/3 78/3/3
f 87/3/3 79/3/3 86/3/3
f 88/1/4 89/1/4 94/1/4
f 89/2/4 90/2/4 94/2/4
f 90/1/4 91/1/4 95/1/4
f 94/2/4 90/2/4 95/2/4
f 95/1/4 91/1/4 96/1/4
f 96/1/4 91/1/4 97/1/4
f 88/1/4 94/1/4 98/1/4
f 94/1/4 95/1/4 98/1/4
f 95/1/4 96/1/4 98/1/4
f 96/2/4 97/2/4 99/2/4
f 98/1/4 96/1/4 99/1/4
f 97/1/4 91/1/4 100/1/4
f 99/2/4 97/2/4 100/2/4
f 100/1/4 91/1/4 101/1/4
f 92/3/4 93/3/4 102/3/4
f 102/3/4 93/3/4 103/3/4
f 104/3/4 105/3/4 107/3/4
f 107/3/4 105/3/4 108/3/4
f 106/3/4 107/3/4 110/3/4
f 110/3/4 107/3/4 111/3/4
f 108/3/4 109/3/4 112/3/4
f 112/3/4 109/3/4 113/3/4
f 111/3/4 112/3/4 114/3/4
f 114/3/4 112/3/4 115/3/4
f 116/3/4 117/3/4 118/3/4
f 118/3/4 117/3/4 119/3/4
f 122/1/5 121/1/5 120/1/5
f 123/1/5 121/1/5 122/1/5
f 126/3/5 125/3/5 124/3/5
f 127/3/5 125/3/5 126/3/5
f 128/3/5 126/3/5 124/3/5
f 129/3/5 125/3/5 127/3/5
f 130/3/5 128/3/5 124/3/5
f 130/3/5 129/3/5 128/3/5
f 131/3/5 125/3/5 129/3/5
f 131/3/5 129/3/5 130/3/5
f 135/3/5 133/3/5 132/3/5
f 136/3/5 133/3/5 135/3/5
f 138/3/5 135/3/5 134/3/5
f 139/3/5 135/3/5 138/3/5
f 140/3/5 137/3/5 136/3/5
f 141/3/5 137/3/5 140/3/5
f 142/3/5 140/3/5 139/3/5
f 143/3/5 140/3/5 142/3/5
f 144/3/6 145/3/6 147/3/6
f 147/3/6 145/3/6 148/3/6
f 146/3/6 147/3/6 150/3/6
f 150/3/6 147/3/6 151/3/6
f 148/3/6 149/3/6 152/3/6
f 152/3/6 149/3/6 153/3/6
f 151/3/6 152/3/6 154/3/6
f 154/3/6 152/3/6 155/3/6
f 156/3/6 157/3/6 158/3/6
f 158/3/6 157/3/6 159/3/6
f 156/3/6 158/3/6 160/3/6
f 159/3/6 157/3/6 161/3/6
f 156/3/6 160/3/6 162/3/6
f 160/3/6 161/3/6 162/3/6
f 161/3/6 157/3/6 163/3/6
f 162/3/6 161/3/6 163/3/6
f 164/3/6 165/3/6 166/3/6
f 166/3/6 165/3/6 167/3/6
